<mxfile host="app.diagrams.net" agent="Mozilla/5.0 (Windows NT 10.0; Win64; x64; rv:132.0) Gecko/20100101 Firefox/132.0" version="24.8.9">
  <diagram name="Page-1" id="JkAvYPB6bSPPSsX-lN9P">
    <mxGraphModel dx="2514" dy="920" grid="1" gridSize="10" guides="1" tooltips="1" connect="1" arrows="1" fold="1" page="1" pageScale="1" pageWidth="827" pageHeight="1169" math="0" shadow="0">
      <root>
        <mxCell id="0" />
        <mxCell id="1" parent="0" />
        <mxCell id="2Rfy4oAWT55w4NdHT_DB-2" style="edgeStyle=orthogonalEdgeStyle;rounded=0;orthogonalLoop=1;jettySize=auto;html=1;" parent="1" source="2Rfy4oAWT55w4NdHT_DB-1" target="2Rfy4oAWT55w4NdHT_DB-3" edge="1">
          <mxGeometry relative="1" as="geometry">
            <mxPoint x="40" y="60" as="targetPoint" />
          </mxGeometry>
        </mxCell>
        <mxCell id="2Rfy4oAWT55w4NdHT_DB-1" value="main" style="rounded=0;whiteSpace=wrap;html=1;" parent="1" vertex="1">
          <mxGeometry x="-120" y="30" width="120" height="60" as="geometry" />
        </mxCell>
        <mxCell id="2Rfy4oAWT55w4NdHT_DB-4" style="edgeStyle=orthogonalEdgeStyle;rounded=0;orthogonalLoop=1;jettySize=auto;html=1;" parent="1" source="2Rfy4oAWT55w4NdHT_DB-3" target="2Rfy4oAWT55w4NdHT_DB-5" edge="1">
          <mxGeometry relative="1" as="geometry">
            <mxPoint x="270" y="60" as="targetPoint" />
          </mxGeometry>
        </mxCell>
        <mxCell id="2Rfy4oAWT55w4NdHT_DB-3" value="initGame" style="rounded=1;whiteSpace=wrap;html=1;" parent="1" vertex="1">
          <mxGeometry x="80" y="30" width="120" height="60" as="geometry" />
        </mxCell>
        <mxCell id="oNuUJF6zGCKMsU8N6cub-5" style="edgeStyle=orthogonalEdgeStyle;rounded=0;orthogonalLoop=1;jettySize=auto;html=1;entryX=0;entryY=0.5;entryDx=0;entryDy=0;" edge="1" parent="1" source="2Rfy4oAWT55w4NdHT_DB-5" target="oNuUJF6zGCKMsU8N6cub-1">
          <mxGeometry relative="1" as="geometry" />
        </mxCell>
        <mxCell id="2Rfy4oAWT55w4NdHT_DB-5" value="initStartingGrid" style="rounded=1;whiteSpace=wrap;html=1;" parent="1" vertex="1">
          <mxGeometry x="240" y="30" width="120" height="60" as="geometry" />
        </mxCell>
        <mxCell id="oNuUJF6zGCKMsU8N6cub-32" style="edgeStyle=orthogonalEdgeStyle;rounded=0;orthogonalLoop=1;jettySize=auto;html=1;entryX=1;entryY=0.5;entryDx=0;entryDy=0;" edge="1" parent="1" source="2Rfy4oAWT55w4NdHT_DB-14" target="oNuUJF6zGCKMsU8N6cub-31">
          <mxGeometry relative="1" as="geometry" />
        </mxCell>
        <mxCell id="2Rfy4oAWT55w4NdHT_DB-14" value="clear screen" style="rounded=1;whiteSpace=wrap;html=1;" parent="1" vertex="1">
          <mxGeometry x="250" y="305" width="120" height="60" as="geometry" />
        </mxCell>
        <mxCell id="2Rfy4oAWT55w4NdHT_DB-18" style="edgeStyle=orthogonalEdgeStyle;rounded=0;orthogonalLoop=1;jettySize=auto;html=1;entryX=1;entryY=0.5;entryDx=0;entryDy=0;" parent="1" source="2Rfy4oAWT55w4NdHT_DB-17" target="2Rfy4oAWT55w4NdHT_DB-19" edge="1">
          <mxGeometry relative="1" as="geometry">
            <mxPoint x="-50" y="335" as="targetPoint" />
          </mxGeometry>
        </mxCell>
        <mxCell id="2Rfy4oAWT55w4NdHT_DB-17" value="show terminate message" style="rounded=1;whiteSpace=wrap;html=1;" parent="1" vertex="1">
          <mxGeometry x="-20" y="305" width="120" height="60" as="geometry" />
        </mxCell>
        <mxCell id="2Rfy4oAWT55w4NdHT_DB-21" style="edgeStyle=orthogonalEdgeStyle;rounded=0;orthogonalLoop=1;jettySize=auto;html=1;entryX=1;entryY=0.5;entryDx=0;entryDy=0;" parent="1" source="2Rfy4oAWT55w4NdHT_DB-19" target="2Rfy4oAWT55w4NdHT_DB-22" edge="1">
          <mxGeometry relative="1" as="geometry">
            <mxPoint x="-210" y="335" as="targetPoint" />
          </mxGeometry>
        </mxCell>
        <mxCell id="2Rfy4oAWT55w4NdHT_DB-19" value="wait for input" style="shape=parallelogram;perimeter=parallelogramPerimeter;whiteSpace=wrap;html=1;fixedSize=1;" parent="1" vertex="1">
          <mxGeometry x="-170" y="305" width="120" height="60" as="geometry" />
        </mxCell>
        <mxCell id="2Rfy4oAWT55w4NdHT_DB-22" value="terminate program" style="rounded=0;whiteSpace=wrap;html=1;" parent="1" vertex="1">
          <mxGeometry x="-320" y="305" width="120" height="60" as="geometry" />
        </mxCell>
        <mxCell id="2Rfy4oAWT55w4NdHT_DB-25" style="edgeStyle=orthogonalEdgeStyle;rounded=0;orthogonalLoop=1;jettySize=auto;html=1;entryX=1;entryY=0.5;entryDx=0;entryDy=0;" parent="1" source="2Rfy4oAWT55w4NdHT_DB-24" target="2Rfy4oAWT55w4NdHT_DB-14" edge="1">
          <mxGeometry relative="1" as="geometry" />
        </mxCell>
        <mxCell id="2Rfy4oAWT55w4NdHT_DB-29" value="yes" style="edgeLabel;html=1;align=center;verticalAlign=middle;resizable=0;points=[];" parent="2Rfy4oAWT55w4NdHT_DB-25" vertex="1" connectable="0">
          <mxGeometry x="-0.4603" y="-1" relative="1" as="geometry">
            <mxPoint x="-3" y="1" as="offset" />
          </mxGeometry>
        </mxCell>
        <mxCell id="2Rfy4oAWT55w4NdHT_DB-30" style="edgeStyle=orthogonalEdgeStyle;rounded=0;orthogonalLoop=1;jettySize=auto;html=1;" parent="1" source="2Rfy4oAWT55w4NdHT_DB-24" target="2Rfy4oAWT55w4NdHT_DB-31" edge="1">
          <mxGeometry relative="1" as="geometry">
            <mxPoint x="460" y="460" as="targetPoint" />
          </mxGeometry>
        </mxCell>
        <mxCell id="2Rfy4oAWT55w4NdHT_DB-33" value="no" style="edgeLabel;html=1;align=center;verticalAlign=middle;resizable=0;points=[];" parent="2Rfy4oAWT55w4NdHT_DB-30" vertex="1" connectable="0">
          <mxGeometry x="-0.5086" y="-1" relative="1" as="geometry">
            <mxPoint x="1" y="8" as="offset" />
          </mxGeometry>
        </mxCell>
        <mxCell id="2Rfy4oAWT55w4NdHT_DB-24" value="&lt;div&gt;esc&amp;nbsp;&lt;/div&gt;&lt;div&gt;pressed?&lt;/div&gt;" style="rhombus;whiteSpace=wrap;html=1;" parent="1" vertex="1">
          <mxGeometry x="415" y="290" width="90" height="90" as="geometry" />
        </mxCell>
        <mxCell id="2Rfy4oAWT55w4NdHT_DB-34" style="edgeStyle=orthogonalEdgeStyle;rounded=0;orthogonalLoop=1;jettySize=auto;html=1;" parent="1" source="2Rfy4oAWT55w4NdHT_DB-31" target="2Rfy4oAWT55w4NdHT_DB-35" edge="1">
          <mxGeometry relative="1" as="geometry">
            <mxPoint x="340" y="460" as="targetPoint" />
          </mxGeometry>
        </mxCell>
        <mxCell id="2Rfy4oAWT55w4NdHT_DB-31" value="colour and draw hud" style="rounded=1;whiteSpace=wrap;html=1;" parent="1" vertex="1">
          <mxGeometry x="400" y="430" width="120" height="60" as="geometry" />
        </mxCell>
        <mxCell id="2Rfy4oAWT55w4NdHT_DB-35" value="colour and draw grid" style="rounded=1;whiteSpace=wrap;html=1;" parent="1" vertex="1">
          <mxGeometry x="250" y="430" width="120" height="60" as="geometry" />
        </mxCell>
        <mxCell id="2Rfy4oAWT55w4NdHT_DB-40" style="edgeStyle=orthogonalEdgeStyle;rounded=0;orthogonalLoop=1;jettySize=auto;html=1;" parent="1" source="2Rfy4oAWT55w4NdHT_DB-37" target="2Rfy4oAWT55w4NdHT_DB-39" edge="1">
          <mxGeometry relative="1" as="geometry" />
        </mxCell>
        <mxCell id="2Rfy4oAWT55w4NdHT_DB-37" value="get usr input" style="shape=parallelogram;perimeter=parallelogramPerimeter;whiteSpace=wrap;html=1;fixedSize=1;" parent="1" vertex="1">
          <mxGeometry x="100" y="430" width="120" height="60" as="geometry" />
        </mxCell>
        <mxCell id="2Rfy4oAWT55w4NdHT_DB-38" style="edgeStyle=orthogonalEdgeStyle;rounded=0;orthogonalLoop=1;jettySize=auto;html=1;entryX=0.893;entryY=0.53;entryDx=0;entryDy=0;entryPerimeter=0;" parent="1" source="2Rfy4oAWT55w4NdHT_DB-35" target="2Rfy4oAWT55w4NdHT_DB-37" edge="1">
          <mxGeometry relative="1" as="geometry" />
        </mxCell>
        <mxCell id="oNuUJF6zGCKMsU8N6cub-15" style="edgeStyle=orthogonalEdgeStyle;rounded=0;orthogonalLoop=1;jettySize=auto;html=1;entryX=1;entryY=0.5;entryDx=0;entryDy=0;" edge="1" parent="1" source="2Rfy4oAWT55w4NdHT_DB-39" target="oNuUJF6zGCKMsU8N6cub-13">
          <mxGeometry relative="1" as="geometry" />
        </mxCell>
        <mxCell id="2Rfy4oAWT55w4NdHT_DB-39" value="update blob position" style="rounded=1;whiteSpace=wrap;html=1;" parent="1" vertex="1">
          <mxGeometry x="-50" y="430" width="120" height="60" as="geometry" />
        </mxCell>
        <mxCell id="oNuUJF6zGCKMsU8N6cub-4" style="edgeStyle=orthogonalEdgeStyle;rounded=0;orthogonalLoop=1;jettySize=auto;html=1;entryX=0.5;entryY=0;entryDx=0;entryDy=0;" edge="1" parent="1" source="oNuUJF6zGCKMsU8N6cub-1" target="oNuUJF6zGCKMsU8N6cub-2">
          <mxGeometry relative="1" as="geometry" />
        </mxCell>
        <mxCell id="oNuUJF6zGCKMsU8N6cub-1" value="spawn zombie and blob randomly" style="rounded=1;whiteSpace=wrap;html=1;" vertex="1" parent="1">
          <mxGeometry x="400" y="30" width="120" height="60" as="geometry" />
        </mxCell>
        <mxCell id="oNuUJF6zGCKMsU8N6cub-7" style="edgeStyle=orthogonalEdgeStyle;rounded=0;orthogonalLoop=1;jettySize=auto;html=1;entryX=0;entryY=0.5;entryDx=0;entryDy=0;" edge="1" parent="1" source="oNuUJF6zGCKMsU8N6cub-2" target="oNuUJF6zGCKMsU8N6cub-6">
          <mxGeometry relative="1" as="geometry" />
        </mxCell>
        <mxCell id="oNuUJF6zGCKMsU8N6cub-9" value="Yes" style="edgeLabel;html=1;align=center;verticalAlign=middle;resizable=0;points=[];" vertex="1" connectable="0" parent="oNuUJF6zGCKMsU8N6cub-7">
          <mxGeometry x="-0.1573" y="1" relative="1" as="geometry">
            <mxPoint x="3" y="1" as="offset" />
          </mxGeometry>
        </mxCell>
        <mxCell id="oNuUJF6zGCKMsU8N6cub-10" style="edgeStyle=orthogonalEdgeStyle;rounded=0;orthogonalLoop=1;jettySize=auto;html=1;entryX=0.5;entryY=0;entryDx=0;entryDy=0;" edge="1" parent="1" source="oNuUJF6zGCKMsU8N6cub-2" target="2Rfy4oAWT55w4NdHT_DB-24">
          <mxGeometry relative="1" as="geometry" />
        </mxCell>
        <mxCell id="oNuUJF6zGCKMsU8N6cub-11" value="no" style="edgeLabel;html=1;align=center;verticalAlign=middle;resizable=0;points=[];" vertex="1" connectable="0" parent="oNuUJF6zGCKMsU8N6cub-10">
          <mxGeometry x="-0.26" y="-1" relative="1" as="geometry">
            <mxPoint as="offset" />
          </mxGeometry>
        </mxCell>
        <mxCell id="oNuUJF6zGCKMsU8N6cub-2" value="&lt;div&gt;do blob and&amp;nbsp;&lt;/div&gt;&lt;div&gt;zombie overlap&lt;/div&gt;" style="rhombus;whiteSpace=wrap;html=1;" vertex="1" parent="1">
          <mxGeometry x="405" y="120" width="110" height="110" as="geometry" />
        </mxCell>
        <mxCell id="oNuUJF6zGCKMsU8N6cub-8" style="edgeStyle=orthogonalEdgeStyle;rounded=0;orthogonalLoop=1;jettySize=auto;html=1;entryX=1;entryY=0.5;entryDx=0;entryDy=0;" edge="1" parent="1" source="oNuUJF6zGCKMsU8N6cub-6" target="oNuUJF6zGCKMsU8N6cub-1">
          <mxGeometry relative="1" as="geometry">
            <Array as="points">
              <mxPoint x="650" y="60" />
            </Array>
          </mxGeometry>
        </mxCell>
        <mxCell id="oNuUJF6zGCKMsU8N6cub-6" value="remove blob and zombie" style="rounded=1;whiteSpace=wrap;html=1;" vertex="1" parent="1">
          <mxGeometry x="590" y="145" width="120" height="60" as="geometry" />
        </mxCell>
        <mxCell id="oNuUJF6zGCKMsU8N6cub-17" style="edgeStyle=orthogonalEdgeStyle;rounded=0;orthogonalLoop=1;jettySize=auto;html=1;" edge="1" parent="1" source="oNuUJF6zGCKMsU8N6cub-13" target="oNuUJF6zGCKMsU8N6cub-16">
          <mxGeometry relative="1" as="geometry" />
        </mxCell>
        <mxCell id="oNuUJF6zGCKMsU8N6cub-18" value="yes" style="edgeLabel;html=1;align=center;verticalAlign=middle;resizable=0;points=[];" vertex="1" connectable="0" parent="oNuUJF6zGCKMsU8N6cub-17">
          <mxGeometry x="-0.0324" y="-1" relative="1" as="geometry">
            <mxPoint x="1" y="-4" as="offset" />
          </mxGeometry>
        </mxCell>
        <mxCell id="oNuUJF6zGCKMsU8N6cub-22" style="edgeStyle=orthogonalEdgeStyle;rounded=0;orthogonalLoop=1;jettySize=auto;html=1;entryX=1;entryY=0.5;entryDx=0;entryDy=0;" edge="1" parent="1" source="oNuUJF6zGCKMsU8N6cub-13" target="oNuUJF6zGCKMsU8N6cub-20">
          <mxGeometry relative="1" as="geometry" />
        </mxCell>
        <mxCell id="oNuUJF6zGCKMsU8N6cub-23" value="no" style="edgeLabel;html=1;align=center;verticalAlign=middle;resizable=0;points=[];" vertex="1" connectable="0" parent="oNuUJF6zGCKMsU8N6cub-22">
          <mxGeometry x="-0.2762" y="-1" relative="1" as="geometry">
            <mxPoint x="-2" y="1" as="offset" />
          </mxGeometry>
        </mxCell>
        <mxCell id="oNuUJF6zGCKMsU8N6cub-13" value="&lt;div&gt;is blob out&amp;nbsp;&lt;/div&gt;&lt;div&gt;of bounds&lt;/div&gt;" style="rhombus;whiteSpace=wrap;html=1;" vertex="1" parent="1">
          <mxGeometry x="-190" y="410" width="100" height="100" as="geometry" />
        </mxCell>
        <mxCell id="oNuUJF6zGCKMsU8N6cub-21" style="edgeStyle=orthogonalEdgeStyle;rounded=0;orthogonalLoop=1;jettySize=auto;html=1;entryX=0.5;entryY=1;entryDx=0;entryDy=0;" edge="1" parent="1" source="oNuUJF6zGCKMsU8N6cub-16" target="oNuUJF6zGCKMsU8N6cub-20">
          <mxGeometry relative="1" as="geometry" />
        </mxCell>
        <mxCell id="oNuUJF6zGCKMsU8N6cub-16" value="move blob to other side of the grid" style="rounded=1;whiteSpace=wrap;html=1;" vertex="1" parent="1">
          <mxGeometry x="-200" y="560" width="120" height="60" as="geometry" />
        </mxCell>
        <mxCell id="oNuUJF6zGCKMsU8N6cub-24" style="edgeStyle=orthogonalEdgeStyle;rounded=0;orthogonalLoop=1;jettySize=auto;html=1;" edge="1" parent="1" source="oNuUJF6zGCKMsU8N6cub-20" target="oNuUJF6zGCKMsU8N6cub-25">
          <mxGeometry relative="1" as="geometry">
            <mxPoint x="-420" y="460" as="targetPoint" />
          </mxGeometry>
        </mxCell>
        <mxCell id="oNuUJF6zGCKMsU8N6cub-20" value="zombie nav to blob" style="rounded=1;whiteSpace=wrap;html=1;" vertex="1" parent="1">
          <mxGeometry x="-360" y="430" width="120" height="60" as="geometry" />
        </mxCell>
        <mxCell id="oNuUJF6zGCKMsU8N6cub-27" style="edgeStyle=orthogonalEdgeStyle;rounded=0;orthogonalLoop=1;jettySize=auto;html=1;" edge="1" parent="1" source="oNuUJF6zGCKMsU8N6cub-25" target="oNuUJF6zGCKMsU8N6cub-26">
          <mxGeometry relative="1" as="geometry" />
        </mxCell>
        <mxCell id="oNuUJF6zGCKMsU8N6cub-25" value="move zombie" style="rounded=1;whiteSpace=wrap;html=1;" vertex="1" parent="1">
          <mxGeometry x="-510" y="430" width="120" height="60" as="geometry" />
        </mxCell>
        <mxCell id="oNuUJF6zGCKMsU8N6cub-28" style="edgeStyle=orthogonalEdgeStyle;rounded=0;orthogonalLoop=1;jettySize=auto;html=1;endArrow=classic;endFill=1;entryX=0.5;entryY=0;entryDx=0;entryDy=0;" edge="1" parent="1" source="oNuUJF6zGCKMsU8N6cub-26" target="2Rfy4oAWT55w4NdHT_DB-14">
          <mxGeometry relative="1" as="geometry">
            <mxPoint x="-560" y="160" as="targetPoint" />
            <Array as="points">
              <mxPoint x="-560" y="590" />
              <mxPoint x="-560" y="180" />
              <mxPoint x="310" y="180" />
            </Array>
          </mxGeometry>
        </mxCell>
        <mxCell id="oNuUJF6zGCKMsU8N6cub-41" value="yes" style="edgeLabel;html=1;align=center;verticalAlign=middle;resizable=0;points=[];" vertex="1" connectable="0" parent="oNuUJF6zGCKMsU8N6cub-28">
          <mxGeometry x="-0.7734" y="4" relative="1" as="geometry">
            <mxPoint x="34" y="111" as="offset" />
          </mxGeometry>
        </mxCell>
        <mxCell id="oNuUJF6zGCKMsU8N6cub-43" style="edgeStyle=orthogonalEdgeStyle;rounded=0;orthogonalLoop=1;jettySize=auto;html=1;entryX=0;entryY=0.5;entryDx=0;entryDy=0;" edge="1" parent="1" source="oNuUJF6zGCKMsU8N6cub-26" target="oNuUJF6zGCKMsU8N6cub-42">
          <mxGeometry relative="1" as="geometry">
            <Array as="points">
              <mxPoint x="-450" y="680" />
            </Array>
          </mxGeometry>
        </mxCell>
        <mxCell id="oNuUJF6zGCKMsU8N6cub-44" value="no" style="edgeLabel;html=1;align=center;verticalAlign=middle;resizable=0;points=[];" vertex="1" connectable="0" parent="oNuUJF6zGCKMsU8N6cub-43">
          <mxGeometry x="-0.7387" y="-1" relative="1" as="geometry">
            <mxPoint as="offset" />
          </mxGeometry>
        </mxCell>
        <mxCell id="oNuUJF6zGCKMsU8N6cub-26" value="are blob and zombie on the same tile" style="rhombus;whiteSpace=wrap;html=1;" vertex="1" parent="1">
          <mxGeometry x="-505" y="535" width="110" height="110" as="geometry" />
        </mxCell>
        <mxCell id="oNuUJF6zGCKMsU8N6cub-33" style="edgeStyle=orthogonalEdgeStyle;rounded=0;orthogonalLoop=1;jettySize=auto;html=1;entryX=1;entryY=0.5;entryDx=0;entryDy=0;" edge="1" parent="1" source="oNuUJF6zGCKMsU8N6cub-31" target="oNuUJF6zGCKMsU8N6cub-38">
          <mxGeometry relative="1" as="geometry">
            <mxPoint x="140" y="230" as="targetPoint" />
            <Array as="points">
              <mxPoint x="180" y="250" />
            </Array>
          </mxGeometry>
        </mxCell>
        <mxCell id="oNuUJF6zGCKMsU8N6cub-34" value="yes" style="edgeLabel;html=1;align=center;verticalAlign=middle;resizable=0;points=[];" vertex="1" connectable="0" parent="oNuUJF6zGCKMsU8N6cub-33">
          <mxGeometry x="-0.1602" y="1" relative="1" as="geometry">
            <mxPoint x="8" y="29" as="offset" />
          </mxGeometry>
        </mxCell>
        <mxCell id="oNuUJF6zGCKMsU8N6cub-35" style="edgeStyle=orthogonalEdgeStyle;rounded=0;orthogonalLoop=1;jettySize=auto;html=1;entryX=1;entryY=0.5;entryDx=0;entryDy=0;" edge="1" parent="1" source="oNuUJF6zGCKMsU8N6cub-31" target="2Rfy4oAWT55w4NdHT_DB-17">
          <mxGeometry relative="1" as="geometry" />
        </mxCell>
        <mxCell id="oNuUJF6zGCKMsU8N6cub-36" value="no" style="edgeLabel;html=1;align=center;verticalAlign=middle;resizable=0;points=[];" vertex="1" connectable="0" parent="oNuUJF6zGCKMsU8N6cub-35">
          <mxGeometry x="-0.1613" y="1" relative="1" as="geometry">
            <mxPoint as="offset" />
          </mxGeometry>
        </mxCell>
        <mxCell id="oNuUJF6zGCKMsU8N6cub-31" value="did player lose" style="rhombus;whiteSpace=wrap;html=1;" vertex="1" parent="1">
          <mxGeometry x="140" y="295" width="80" height="80" as="geometry" />
        </mxCell>
        <mxCell id="oNuUJF6zGCKMsU8N6cub-38" value="show loss message" style="rounded=1;whiteSpace=wrap;html=1;" vertex="1" parent="1">
          <mxGeometry x="-20" y="220" width="120" height="60" as="geometry" />
        </mxCell>
        <mxCell id="oNuUJF6zGCKMsU8N6cub-40" style="edgeStyle=orthogonalEdgeStyle;rounded=0;orthogonalLoop=1;jettySize=auto;html=1;entryX=0.513;entryY=0.083;entryDx=0;entryDy=0;entryPerimeter=0;" edge="1" parent="1" source="oNuUJF6zGCKMsU8N6cub-38" target="2Rfy4oAWT55w4NdHT_DB-19">
          <mxGeometry relative="1" as="geometry" />
        </mxCell>
        <mxCell id="oNuUJF6zGCKMsU8N6cub-45" style="edgeStyle=orthogonalEdgeStyle;rounded=0;orthogonalLoop=1;jettySize=auto;html=1;" edge="1" parent="1" source="oNuUJF6zGCKMsU8N6cub-42" target="2Rfy4oAWT55w4NdHT_DB-31">
          <mxGeometry relative="1" as="geometry" />
        </mxCell>
        <mxCell id="oNuUJF6zGCKMsU8N6cub-42" value="increase score" style="rounded=1;whiteSpace=wrap;html=1;" vertex="1" parent="1">
          <mxGeometry x="-360" y="650" width="120" height="60" as="geometry" />
        </mxCell>
      </root>
    </mxGraphModel>
  </diagram>
</mxfile>
